 <svg width="56" height="56" viewBox="0 0 56 56" fill="none"
                                        xmlns="http://www.w3.org/2000/svg">
                                        <path fill-rule="evenodd" clip-rule="evenodd"
                                            d="M44.2525 38.7574L41.5155 36.0204C40.1482 34.6531 37.9315 34.6531 36.5665 36.0204L34.4152 38.1717C33.9345 38.6524 33.2065 38.8134 32.5859 38.5404C29.4685 37.1754 26.3885 35.1057 23.6422 32.3594C20.9075 29.6247 18.8449 26.5587 17.4775 23.4531C17.1929 22.8114 17.3585 22.0577 17.8555 21.5607L19.7829 19.6334C21.3485 18.0677 21.3485 15.8534 19.9812 14.4861L17.2442 11.7491C15.4219 9.92674 12.4679 9.92674 10.6455 11.7491L9.1242 13.2681C7.3952 14.9971 6.6742 17.4914 7.14087 19.9647C8.29354 26.0617 11.8355 32.7374 17.5499 38.4517C23.2642 44.1661 29.9399 47.7081 36.0369 48.8607C38.5102 49.3274 41.0045 48.6064 42.7335 46.8774L44.2525 45.3584C46.0749 43.5361 46.0749 40.5821 44.2525 38.7574V38.7574Z"
                                            stroke="#084887" stroke-width="2" stroke-linecap="round"
                                            stroke-linejoin="round" />
                                        <path d="M30.334 16.3131C32.7397 16.2805 35.157 17.1718 36.9933 19.0081"
                                            stroke="#084887" stroke-width="2" stroke-linecap="round"
                                            stroke-linejoin="round" />
                                        <path d="M43.592 12.4094C39.931 8.74841 35.1313 6.91675 30.334 6.91675"
                                            stroke="#084887" stroke-width="2" stroke-linecap="round"
                                            stroke-linejoin="round" />
                                        <path d="M39.6891 25.6674C39.7218 23.2617 38.8305 20.8444 36.9941 19.0081"
                                            stroke="#084887" stroke-width="2" stroke-linecap="round"
                                            stroke-linejoin="round" />
                                        <path d="M43.5918 12.4094C47.2528 16.0704 49.0845 20.8701 49.0845 25.6674"
                                            stroke="#084887" stroke-width="2" stroke-linecap="round"
                                            stroke-linejoin="round" />
                                    </svg>