<svg width="56" height="56" viewBox="0 0 56 56" fill="none" xmlns="http://www.w3.org/2000/svg">
<path d="M13.9932 30.6921C9.70503 32.6156 6.99023 35.3981 6.99023 38.5051C6.99023 44.3058 16.3952 49.0094 27.999 49.0094C39.6028 49.0094 49.0077 44.3058 49.0077 38.5051C49.0077 35.3981 46.2929 32.6156 42.0048 30.6921" stroke="#084887" stroke-width="2" stroke-linecap="round" stroke-linejoin="round"/>
<path d="M36.5244 39.6722C33.9948 41.3182 31.0148 42.1342 27.9995 42.0065C24.9842 42.1342 22.0042 41.3182 19.4746 39.6722" stroke="#084887" stroke-width="2" stroke-linecap="round" stroke-linejoin="round"/>
<path d="M33.1359 9.12316C35.2169 11.2041 35.8395 14.3336 34.7133 17.0525C33.5871 19.7715 30.934 21.5442 27.9911 21.5442C25.0482 21.5442 22.395 19.7715 21.2689 17.0525C20.1427 14.3336 20.7653 11.2041 22.8463 9.12316C24.2105 7.75814 26.0612 6.99121 27.9911 6.99121C29.9209 6.99121 31.7717 7.75814 33.1359 9.12316" stroke="#084887" stroke-width="2" stroke-linecap="round" stroke-linejoin="round"/>
<path d="M27.9992 21.5393V35.0036" stroke="#084887" stroke-width="2" stroke-linecap="round" stroke-linejoin="round"/>
</svg>
