<svg width="56" height="56" viewBox="0 0 56 56" fill="none" xmlns="http://www.w3.org/2000/svg">
<path fill-rule="evenodd" clip-rule="evenodd" d="M7 15.8674V15.8674C7 17.2674 7.7 18.434 8.86667 19.3674L22.8667 28.934C26.1333 31.034 30.1 31.034 33.3667 28.934L47.3667 19.6007C48.3 18.434 49 17.2674 49 15.8674V15.8674C49 13.534 47.1333 11.6674 44.8 11.6674H11.2C8.86667 11.6674 7 13.534 7 15.8674Z" stroke="#084887" stroke-width="2" stroke-linecap="round" stroke-linejoin="round"/>
<path d="M7 16.334V39.6673C7 42.234 9.1 44.334 11.6667 44.334H44.3333C46.9 44.334 49 42.234 49 39.6673V16.334" stroke="#084887" stroke-width="2" stroke-linecap="round" stroke-linejoin="round"/>
<path d="M8.37109 42.962L22.5904 28.7427" stroke="#084887" stroke-width="2" stroke-linecap="round" stroke-linejoin="round"/>
<path d="M33.5059 28.8407L47.6272 42.962" stroke="#084887" stroke-width="2" stroke-linecap="round" stroke-linejoin="round"/>
</svg>
