<svg width="65" height="64" viewBox="0 0 65 64" fill="none" xmlns="http://www.w3.org/2000/svg">
<path fill-rule="evenodd" clip-rule="evenodd" d="M37.8682 52.3506V44.9982C37.8717 44.0579 38.3814 43.1924 39.2021 42.7333L45.8422 38.9984C46.6337 38.5556 47.5984 38.5556 48.3899 38.9984L55.03 42.7333C55.8518 43.1911 56.362 44.0574 56.3639 44.9982V52.3506C56.3598 53.2908 55.8502 54.156 55.03 54.6155L48.3872 58.3504C47.5964 58.7959 46.6303 58.7959 45.8395 58.3504L39.1994 54.6155C38.379 54.1566 37.87 53.2907 37.8682 52.3506V52.3506Z" stroke="#084887" stroke-width="3" stroke-linecap="round" stroke-linejoin="round"/>
<path d="M47.1063 48.6716V58.6785" stroke="#084887" stroke-width="3" stroke-linecap="round" stroke-linejoin="round"/>
<path d="M38.2227 43.6857L47.1064 48.6717L55.9901 43.6857" stroke="#084887" stroke-width="3" stroke-linecap="round" stroke-linejoin="round"/>
<path d="M10.9902 53.343C10.9902 46.7128 16.3651 41.338 22.9952 41.338H29.8861" stroke="#084887" stroke-width="3" stroke-linecap="round" stroke-linejoin="round"/>
<path d="M40.3492 13.98C43.5922 17.2225 44.5625 22.0993 42.8077 26.3363C41.0528 30.5732 36.9185 33.3358 32.3325 33.3358C27.7466 33.3358 23.6122 30.5732 21.8574 26.3363C20.1026 22.0993 21.0729 17.2225 24.3159 13.98C26.4418 11.8534 29.3255 10.6586 32.3325 10.6586C35.3395 10.6586 38.2233 11.8534 40.3492 13.98" stroke="#084887" stroke-width="3" stroke-linecap="round" stroke-linejoin="round"/>
</svg>
