<svg width="64" height="64" viewBox="0 0 64 64" fill="none" xmlns="http://www.w3.org/2000/svg">
<path d="M53.3422 53.343L44.6719 44.6727" stroke="#084887" stroke-width="3" stroke-linecap="round" stroke-linejoin="round"/>
<path d="M44.6634 16.4929C52.4427 24.2723 52.4426 36.8851 44.6633 44.6644C36.8839 52.4437 24.2711 52.4437 16.4918 44.6644C8.71242 36.8851 8.71237 24.2723 16.4917 16.4929C20.2274 12.7571 25.2943 10.6583 30.5775 10.6583C35.8608 10.6583 40.9276 12.7571 44.6634 16.4929" stroke="#084887" stroke-width="3" stroke-linecap="round" stroke-linejoin="round"/>
<path d="M30.5858 21.2496V29.8452" stroke="#084887" stroke-width="3" stroke-linecap="round" stroke-linejoin="round"/>
<path d="M39.9225 31.9207C39.9225 30.7744 38.9932 29.8452 37.847 29.8452H23.3236C22.1773 29.8452 21.248 30.7744 21.248 31.9207" stroke="#084887" stroke-width="3" stroke-linecap="round" stroke-linejoin="round"/>
<path fill-rule="evenodd" clip-rule="evenodd" d="M23.9158 39.9241H37.2547C38.7281 39.9241 39.9225 38.7297 39.9225 37.2563V27.7457C39.9223 26.6646 39.7036 25.5948 39.2796 24.6004L38.5379 22.869C38.1183 21.8872 37.1539 21.2502 36.0862 21.2496H25.0843C24.0157 21.2491 23.0499 21.8864 22.63 22.869L21.891 24.5977C21.4683 25.5888 21.2497 26.6549 21.248 27.7323V37.2563C21.248 38.7297 22.4425 39.9241 23.9158 39.9241Z" stroke="#084887" stroke-width="3" stroke-linecap="round" stroke-linejoin="round"/>
</svg>
