<svg width="64" height="65" viewBox="0 0 64 65" fill="none" xmlns="http://www.w3.org/2000/svg">
<path d="M55.997 43.4172C55.997 46.3639 51.8183 48.7506 46.6637 48.7506C41.509 48.7506 37.333 46.3612 37.333 43.4172" stroke="#084887" stroke-width="3" stroke-linecap="round" stroke-linejoin="round"/>
<path d="M37.333 35.4172C37.333 38.3639 41.5117 40.7506 46.6663 40.7506C51.821 40.7506 55.9997 38.3639 55.9997 35.4172" stroke="#084887" stroke-width="3" stroke-linecap="round" stroke-linejoin="round"/>
<path fill-rule="evenodd" clip-rule="evenodd" d="M37.333 35.4173C37.3357 32.4733 41.5143 30.084 46.6663 30.084C51.8183 30.084 55.9997 32.4707 55.997 35.4173V51.4173C55.997 54.364 51.8183 56.7507 46.6637 56.7507C41.509 56.7507 37.333 54.3613 37.333 51.4173V35.4173H37.333Z" stroke="#084887" stroke-width="3" stroke-linecap="round" stroke-linejoin="round"/>
<path fill-rule="evenodd" clip-rule="evenodd" d="M8 19.5827V9.08398C8 7.42798 9.344 6.08398 11 6.08398H29.3333C30.9893 6.08398 32.3333 7.42798 32.3333 9.08398V19.5853C32.3333 21.2413 30.9893 22.5853 29.3333 22.5853H11C9.344 22.5853 8 21.2413 8 19.5827V19.5827Z" stroke="#084887" stroke-width="3" stroke-linecap="round" stroke-linejoin="round"/>
<path d="M26.6667 54.084H12.5707C10.048 54.084 8 52.036 8 49.5133V38.084" stroke="#084887" stroke-width="3" stroke-linecap="round" stroke-linejoin="round"/>
<path d="M42.667 8.75073H51.4297C53.9523 8.75073 56.0003 10.7987 56.0003 13.3214V22.0841" stroke="#084887" stroke-width="3" stroke-linecap="round" stroke-linejoin="round"/>
<path d="M20.1605 22.5906V30.0839" stroke="#084887" stroke-width="3" stroke-linecap="round" stroke-linejoin="round"/>
<path d="M14.8271 30.0841H25.4938" stroke="#084887" stroke-width="3" stroke-linecap="round" stroke-linejoin="round"/>
</svg>
