<svg width="64" height="65" viewBox="0 0 64 65" fill="none" xmlns="http://www.w3.org/2000/svg">
<g clip-path="url(#clip0_366_432)">
<path fill-rule="evenodd" clip-rule="evenodd" d="M22.6254 8.76673C13.2923 9.39411 6.65881 12.1351 3.15256 16.8132C2.30294 17.9469 1.21556 20.1469 0.820938 21.5305C0.0345625 24.2876 0.0751875 23.3074 0.0318125 40.5945L-0.0078125 56.3757H13.7463H27.5004V42.6257V28.8757H20.6367H13.7729L13.6822 27.7864C13.4177 24.611 14.1567 21.3665 15.6186 19.2849C17.6594 16.3787 20.9889 14.8847 26.1567 14.5562L27.5004 14.4709V11.5484V8.62573L25.8442 8.64373C24.9333 8.65361 23.4848 8.70886 22.6254 8.76673ZM60.2504 8.70686C54.6224 9.08098 50.7953 9.83386 47.3088 11.2524C41.8749 13.4634 38.5508 17.1086 37.1966 22.3415C36.5881 24.6929 36.5871 24.7185 36.5342 41.032L36.4846 56.3757H50.2424H64.0004V42.6257V28.8757H57.1969H50.3934L50.3049 28.1679C50.1794 27.1632 50.3184 24.3489 50.5449 23.3067C50.8046 22.1126 51.2309 20.9724 51.8073 19.9312C52.4509 18.7684 54.1309 17.1115 55.3759 16.4115C57.1788 15.3979 59.7129 14.7585 62.7192 14.5589L64.0004 14.4737V11.5497V8.62573L62.4067 8.64761C61.5302 8.65961 60.5598 8.68623 60.2504 8.70686Z" fill="#084887" fill-opacity="0.4"/>
</g>
<defs>
<clipPath id="clip0_366_432">
<rect width="64" height="64" fill="white" transform="translate(0 0.500732)"/>
</clipPath>
</defs>
</svg>
